<svg width="50" height="50" viewBox="0 0 50 50" fill="none" xmlns="http://www.w3.org/2000/svg">
<path d="M3.95604 11.232H3.95605H13.9228C14.927 11.232 15.82 10.6295 16.1959 9.6981L16.9803 7.75445C17.5491 6.34508 18.8973 5.4353 20.417 5.4353H39.5497C41.0692 5.4353 42.4177 6.34518 42.9864 7.75435L43.7708 9.69808C44.1465 10.6294 45.0397 11.232 46.0439 11.232C48.0872 11.232 49.75 12.8948 49.75 14.938V31.5733C49.75 31.9198 49.4691 32.2007 49.1226 32.2007C48.776 32.2007 48.4952 31.9198 48.4952 31.5733V14.9381C48.4952 13.5863 47.3958 12.4869 46.0439 12.4869C44.5244 12.4869 43.176 11.5771 42.6072 10.1679L41.8229 8.22418C41.4471 7.2929 40.554 6.69028 39.5497 6.69028H20.4172C19.4128 6.69028 18.5199 7.29281 18.144 8.22417L17.3597 10.1679C16.7909 11.5771 15.4427 12.4869 13.9229 12.4869H7.72871H7.22058L7.53065 12.8894C8.33858 13.9383 9.06943 15.0453 9.70936 16.1996C9.87734 16.5028 9.76784 16.8847 9.46486 17.0526L9.46483 17.0526C9.36813 17.1062 9.264 17.1314 9.16133 17.1314C8.93992 17.1314 8.72625 17.0144 8.61181 16.808C7.77699 15.3022 6.78195 13.8804 5.65464 12.5735L5.57984 12.4868H5.46533H3.95605C2.6043 12.4868 1.50488 13.5862 1.50488 14.938V40.8586C1.50488 42.2105 2.6042 43.3099 3.95605 43.3099H7.1165H7.24775L7.32228 43.2019C10.2172 39.0061 11.7453 34.0934 11.7453 28.966C11.7453 25.7311 11.1392 22.5819 9.9438 19.607C9.8146 19.2854 9.97055 18.92 10.292 18.7908L10.2921 18.7908C10.6135 18.6616 10.9789 18.8175 11.1081 19.139L11.1081 19.1391C12.3635 22.2632 13.0001 25.5691 13.0001 28.966C13.0001 33.9538 11.6229 38.746 9.00395 42.9272L8.76423 43.3099H9.21582H46.0439C47.3957 43.3099 48.4951 42.2105 48.4951 40.8586V34.4981C48.4951 34.1516 48.7759 33.8707 49.1226 33.8707C49.4692 33.8707 49.75 34.1516 49.75 34.4981V40.8586C49.75 42.9019 48.0872 44.5647 46.0439 44.5647H3.95605C1.91278 44.5647 0.25 42.9019 0.25 40.8586V14.938C0.25 12.8947 1.91278 11.2319 3.95604 11.232Z" fill="#F96900" stroke="white" stroke-width="0.5"/>
<path d="M16.6214 28.9237C16.6214 22.2107 22.0833 16.7488 28.7964 16.7488C35.5093 16.7488 40.9712 22.2107 40.9712 28.9237C40.9712 35.6367 35.5094 41.0986 28.7964 41.0986C22.0832 41.0986 16.6214 35.6368 16.6214 28.9237ZM17.8762 28.9238C17.8762 34.9453 22.7748 39.8439 28.7964 39.8439C34.8179 39.8439 39.7164 34.9453 39.7164 28.9238C39.7164 22.9022 34.8179 18.0037 28.7964 18.0037C22.7747 18.0037 17.8762 22.9021 17.8762 28.9238Z" fill="#F96900" stroke="white" stroke-width="0.5"/>
<path d="M20.6949 32.3464L20.6949 32.3464C20.8298 32.6654 21.1979 32.8148 21.5172 32.6799L20.6949 32.3464ZM20.6949 32.3464C20.2362 31.2621 20.0036 30.111 20.0035 28.9238L20.6949 32.3464ZM22.8839 35.4321L22.884 35.4321C24.5047 36.9052 26.6041 37.7165 28.7962 37.7165C33.6443 37.7165 37.5888 33.7718 37.5888 28.9238C37.5888 24.0757 33.6443 20.1311 28.7962 20.1311C23.948 20.1311 20.0035 24.0757 20.0035 28.9238L22.8839 35.4321ZM22.8839 35.4321C22.6275 35.1992 22.6086 34.8023 22.8416 34.5459C23.0746 34.2896 23.4714 34.2706 23.728 34.5036C25.1173 35.7662 26.9174 36.4617 28.7962 36.4617C32.9528 36.4617 36.3341 33.0805 36.3341 28.9238C36.3341 24.7672 32.9528 21.3859 28.7962 21.3859C24.6396 21.3859 21.2583 24.7671 21.2583 28.9238C21.2583 29.9411 21.4575 30.9286 21.8505 31.8576M22.8839 35.4321L21.8505 31.8576M21.8505 31.8576C21.9855 32.1768 21.8363 32.5448 21.5172 32.6798L21.8505 31.8576Z" fill="#F96900" stroke="white" stroke-width="0.5"/>
<path d="M39.1362 13.6828H39.125H32.3891C32.0424 13.6828 31.7616 13.4019 31.7616 13.0553V9.59106C31.7616 9.24455 32.0425 8.96362 32.3891 8.96362H39.125C39.4716 8.96362 39.7525 9.24455 39.7525 9.59106V13.0554C39.7525 13.3982 39.4776 13.6768 39.1362 13.6828ZM38.2477 12.4279H38.4977V12.1779V10.4685V10.2185H38.2477H33.2665H33.0165V10.4685V12.1779V12.4279H33.2665H38.2477Z" fill="#F96900" stroke="white" stroke-width="0.5"/>
<path d="M19.6479 12.5641C19.6479 11.0573 20.8742 9.83105 22.3809 9.83105C23.8878 9.83105 25.1142 11.0573 25.1142 12.5641C25.1142 14.0708 23.8878 15.2971 22.3809 15.2971C20.8741 15.2971 19.6479 14.0708 19.6479 12.5641ZM20.9027 12.5641C20.9027 13.3794 21.5656 14.0423 22.3809 14.0423C23.1964 14.0423 23.8593 13.3794 23.8593 12.5641C23.8593 11.7487 23.1964 11.0858 22.3809 11.0858C21.5655 11.0858 20.9027 11.7488 20.9027 12.5641Z" fill="#F96900" stroke="white" stroke-width="0.5"/>
</svg>
