<svg width="50" height="50" viewBox="0 0 50 50" fill="none" xmlns="http://www.w3.org/2000/svg">
<path d="M20.3125 11.1875H20.5625V10.9375V9.375C20.5625 8.61179 20.8307 7.8432 21.3682 7.30568C21.9057 6.76816 22.6743 6.5 23.4375 6.5H29.6875C30.4507 6.5 31.2193 6.76816 31.7568 7.30568C32.2943 7.8432 32.5625 8.61179 32.5625 9.375V10.9375V11.1875H32.8125H41.9375V13.8125H40.625H40.375V14.0625V39.0625C40.375 41.494 38.369 43.5 35.9375 43.5H17.1875C14.756 43.5 12.75 41.494 12.75 39.0625V14.0625V13.8125H12.5H11.1875V11.1875H20.3125ZM23.4375 9.125H23.1875V9.375V10.9375V11.1875H23.4375H29.6875H29.9375V10.9375V9.375V9.125H29.6875H23.4375ZM15.625 13.8125H15.375V14.0625V39.0625C15.375 40.0673 16.1827 40.875 17.1875 40.875H35.9375C36.9423 40.875 37.75 40.0673 37.75 39.0625V14.0625V13.8125H37.5H15.625ZM21.625 35.6875H19V19H21.625V35.6875ZM27.875 35.6875H25.25V19H27.875V35.6875ZM34.125 35.6875H31.5V19H34.125V35.6875Z" fill="#F96900" stroke="white" stroke-width="0.5"/>
</svg>
