<svg width="949" height="275" viewBox="0 0 949 275" fill="none" xmlns="http://www.w3.org/2000/svg">
<path d="M78.1571 0.9698C100.262 0.9698 115.076 8.07303 122.598 22.2783C127.799 33.049 130.4 43.5869 130.4 53.8939H130.121C114.982 55.1938 104.627 55.8438 99.0545 55.8438C99.0545 48.5085 96.7791 42.334 92.228 37.3205C87.9557 34.9064 84.0084 33.6993 80.3862 33.6993H74.8135C65.34 33.6993 59.5817 37.3669 57.5389 44.702C57.0745 46.8376 56.8423 48.5088 56.8423 49.7159V52.6407C56.8423 63.04 62.322 70.5606 73.2809 75.2029C74.2097 76.0385 81.8256 79.5203 96.1292 85.6485C103.745 89.1767 110.803 93.5407 117.306 98.7403V99.0188H82.3369V102.919H128.45V108.49H134.301V168.935H122.878V199.993H34.2733V168.935H13.3766V148.045H25.2185V140.802H13.3766V135.928H53.9175V168.937H95.4342V119.216H64.3673V102.92H25.7765V99.0205H44.4449V98.742C28.099 87.8785 19.9247 72.5117 19.9247 52.6421V49.9959C19.9247 33.3766 25.033 20.7478 35.2491 12.1123C44.5368 4.68429 58.8392 0.970228 78.1581 0.970228L78.1571 0.9698ZM128.45 99.0182H142.521V102.918H128.45V99.0182ZM0 140.801H13.3743V148.043H0V140.801ZM221.234 0.684564C249.84 0.684564 268.647 10.6661 277.657 30.6286C282.765 40.3779 285.319 59.1807 285.319 87.0355V88.0104H270.551V94.6956H285.319V166.701H275.567V192.606H256.203V199.987H188.495V192.606H180.276V166.701H162.861V146.366H173.171V135.642H162.861V146.366H138.203V135.642H156.871C156.685 119.392 156.592 106.951 156.592 98.3159V81.3244C156.592 49.7545 161.933 28.6328 172.613 17.9536C182.365 6.44018 198.571 0.683979 221.234 0.683979L221.234 0.684564ZM196.853 69.3523L197.271 69.3521L196.853 69.9092V88.0146H181.947V94.6998H196.853C196.668 123.39 196.575 145.024 196.575 159.602V166.705H229.871V155.703H245.196V155.285C245.196 141.729 245.103 122.834 244.917 98.6C244.917 97.5787 245.01 95.0254 245.196 90.94C245.196 64.7568 243.664 48.6466 240.598 42.611C237.441 36.8544 231.636 33.976 223.184 33.976H218.308C208.184 33.976 201.915 38.4328 199.5 47.3464C198.385 51.7104 197.503 59.0455 196.853 69.3523L196.853 69.3523ZM285.319 88.0152H309.282V94.7005H285.319V88.0152ZM377.964 0.413589C405.826 0.413589 423.335 9.14181 430.485 26.5968C432.621 30.7751 433.689 33.5606 433.689 34.9534H416.135V40.2458H435.082V39.9672C435.082 39.0387 434.617 37.3675 433.688 34.9534H465.871V40.2458H435.36V40.6636C436.939 48.1844 438.054 56.2161 438.704 64.7589C438.704 65.2231 426.491 66.1051 402.063 67.405V67.1265C402.063 45.0278 394.494 33.9792 379.355 33.9792H375.175C363.844 33.9792 356.925 38.8074 354.417 48.4635C352.467 56.5415 351.491 67.2662 351.491 80.6367V107.795L351.074 111.834H338.256V118.102H351.074V166.431H404.711V116.152H435.639V166.431H418.503V197.35H382.698V199.997H354.835V197.35H326.555V181.89H345.363V175.205H317.082V152.364H305.101V124.091H311.51C311.231 112.578 311.092 103.433 311.092 96.6541C311.092 66.2922 312.531 47.1657 315.41 39.2732C318.29 30.1739 322.794 22.3744 328.924 15.8753C339.883 5.56887 356.23 0.415514 377.963 0.415514L377.964 0.413589ZM457.513 0.413589L495.128 0.413453C495.5 0.506349 495.685 0.738524 495.685 1.10997V98.046C495.685 98.5102 495.5 98.7423 495.128 98.7423H490.67V199.299C490.67 199.764 490.438 199.996 489.973 199.996H457.513C457.048 199.996 456.816 199.764 456.816 199.299V96.3749H446.785C446.321 96.3749 446.089 96.1427 446.089 95.6785V91.361C446.182 90.8968 446.414 90.6647 446.785 90.6647H456.816V1.11057C456.909 0.646364 457.141 0.414195 457.513 0.414195L457.513 0.413589ZM457.095 90.6622V96.3725H476.321V90.6622H457.095ZM564.647 0.827179H598.222C598.686 2.77705 609.553 39.0345 630.822 109.602H636.952V175.2H623.16V180.214H636.952V194.281H599.893V154.03H554.616V171.161H536.088V199.992H502.513V198.042H505.16V171.161H518.952V115.312H530.376L564.647 0.827179ZM580.389 56.9616V57.2402C577.51 73.1178 571.937 98.0945 563.671 132.17H594.878V109.608H592.231C584.801 77.3892 581.085 59.8401 581.085 56.9621H580.389L580.389 56.9616ZM492.76 109.325H518.951V115.314H492.76V109.325ZM599.894 196.65H644.614V199.993H599.894V196.65ZM638.902 0H678.607V82.0338H670.805V166.713H730.014V184.54H718.312V188.579H730.014V200H691.703V196.936H639.182C638.996 194.708 638.903 193.036 638.903 191.922V147.214H648.934V141.225H638.903V0.000850069L638.902 0ZM730.014 184.533H744.503V188.572H730.014V184.533Z" fill="#F96900"/>
<path d="M218.289 125.109H248.936C249.354 125.109 252.631 133.128 258.768 149.166C259.325 149.724 265.741 165.518 278.014 196.548H285.858V125.109H312.74V210.147H315.773V243.304H304.896V249.684H315.773V269.453H275.503V244.349H268.391C258.768 220.85 252.283 204.637 248.936 195.712V170.399H245.17V247.383H239.104V273.951H214V216.736H218.602V216.527C218.393 167.157 218.288 136.685 218.288 125.109L218.289 125.109ZM313.995 171.654H316.819C318.144 171.654 318.806 172.351 318.806 173.745C318.806 174.234 318.562 174.478 318.074 174.478C318.562 175.105 318.806 175.872 318.806 176.779V177.302H317.551C317.412 175.907 317.167 175.21 316.819 175.21H315.564V177.302H313.995V171.654V171.654ZM315.564 172.908V174.268H316.819C317.168 174.268 317.342 174.093 317.342 173.745V172.908H315.564L315.564 172.908ZM313.995 179.289H318.283V180.544H316.819V184.833H315.25V180.544H313.995C313.646 180.544 313.472 180.37 313.472 180.021V179.812C313.541 179.464 313.716 179.289 313.995 179.289V179.289ZM313.472 186.924H314.518C314.936 186.924 315.355 188.005 315.773 190.166H316.296L317.028 186.924H318.597L316.819 192.467H315.564C315.146 192.467 314.448 190.62 313.472 186.924H313.472ZM313.786 194.456L315.25 194.456C315.32 195.083 315.669 195.606 316.296 196.025C316.854 194.979 317.272 194.456 317.551 194.456H318.597V194.769C317.551 196.304 317.028 197.21 317.028 197.489C317.307 197.559 317.9 198.396 318.807 200H317.028C317.028 199.511 316.715 199.023 316.087 198.535C315.46 199.511 315.006 199.999 314.727 199.999H313.472C314.658 198.256 315.25 197.35 315.25 197.28C314.274 195.676 313.786 194.735 313.786 194.456L313.786 194.456ZM263.371 196.547V202.091H280.106C278.781 198.395 277.944 196.547 277.596 196.547H263.371H263.371ZM286.173 196.547V202.091H280.315C283.871 211.017 285.998 216.84 286.696 219.559H286.905V218.827C286.417 209.692 286.173 204.114 286.173 202.091H298.306V196.548H286.173L286.173 196.547ZM313.995 202.091H316.505C318.248 202.3 319.12 203.137 319.12 204.602V204.811C319.12 206.694 318.353 207.635 316.819 207.635H313.995V202.091L313.995 202.091ZM315.564 203.345V206.588C316.889 206.588 317.551 206.1 317.551 205.124V204.81C317.551 203.973 317.307 203.485 316.819 203.345H315.564L315.564 203.345ZM269.96 245.917L273.725 245.917V247.172H271.006V248.114H273.202C273.551 248.183 273.725 248.358 273.725 248.637V248.951C273.725 249.299 273.551 249.474 273.202 249.474H271.006V250.415H273.516C273.865 250.485 274.039 250.659 274.039 250.938V251.147C274.039 251.496 273.865 251.67 273.516 251.67H269.96C269.611 251.67 269.437 251.496 269.437 251.147V246.336C269.506 246.057 269.681 245.917 269.96 245.917V245.917ZM239.522 248.637H241.091C241.788 250.729 242.137 251.914 242.137 252.193H242.346C242.765 249.822 243.183 248.637 243.601 248.637H244.647V248.951C243.601 252.507 242.939 254.285 242.66 254.285H241.3C241.3 253.797 240.707 251.914 239.522 248.637L239.522 248.637ZM271.947 253.448L272.47 253.448C272.818 253.518 272.993 253.692 272.993 253.971V257.318C272.993 258.225 272.574 258.887 271.737 259.306H271.005C269.82 259.306 269.227 258.713 269.227 257.527V257.004H270.482C270.482 257.702 270.657 258.05 271.005 258.05H271.424V253.971C271.493 253.622 271.668 253.448 271.947 253.448L271.947 253.448ZM269.96 261.084H270.483C270.831 261.084 271.006 261.746 271.006 263.071L273.202 261.084H274.562V261.293L272.47 263.594C272.679 263.594 273.446 264.605 274.771 266.627L274.248 266.941H273.516C273.307 266.941 272.609 266.174 271.424 264.64C271.145 264.64 270.901 265.407 270.692 266.941H269.96C269.611 266.941 269.437 266.767 269.437 266.418V261.607C269.507 261.258 269.681 261.084 269.96 261.084L269.96 261.084ZM275.504 272.17H324.141V274.994H275.504V272.17ZM340.04 125.216H413.885V149.692C413.885 150.041 413.71 150.215 413.362 150.215H369.535V182.745H408.864V182.954C408.864 183.93 408.69 189.23 408.341 198.853C408.202 198.853 408.132 198.958 408.132 199.167H409.91V206.698H375.812V237.449H366.712V240.483H375.812V249.792H414.408V253.348H411.374V271.758H365.248V275H343.282V221.341H340.04V202.409H316.087V199.167H340.04V125.217L340.04 125.216ZM340.248 199.162V202.404H352.59V199.162H340.248ZM378.113 242.256L379.891 242.256V244.767H380.1C380.1 244.279 380.867 243.442 382.401 242.256H384.18L381.669 244.976L384.389 249.055H382.611C381.286 247.172 380.553 246.231 380.414 246.231C380.065 246.301 379.891 246.475 379.891 246.754V249.055H378.113V242.256L378.113 242.256ZM386.899 242.256H390.455C391.571 242.256 392.338 242.919 392.756 244.244C392.756 244.453 392.408 245.046 391.71 246.022C392.198 246.022 392.547 247.033 392.756 249.055H391.501C391.152 249.055 390.873 248.219 390.664 246.545H388.677V249.055H386.899V242.256H386.899ZM398.3 242.256L399.242 242.256C400.776 242.256 401.717 243.267 402.066 245.29V246.231C402.066 246.789 401.822 247.382 401.334 248.009V248.323C401.822 248.323 402.066 248.462 402.066 248.741C402.066 249.02 401.822 249.299 401.334 249.578C401.055 249.578 400.776 249.299 400.497 248.741L399.242 249.055H398.3C396.627 249.055 395.685 247.8 395.476 245.29C395.964 243.268 396.906 242.257 398.3 242.257L398.3 242.256ZM397.254 245.29V246.022C397.254 247.207 397.847 247.8 399.032 247.8H399.241V247.486H398.823V247.277C398.823 246.998 399.067 246.754 399.555 246.545L400.287 246.963C400.287 246.894 400.357 246.406 400.497 245.499C400.427 244.174 399.764 243.512 398.509 243.512C397.672 243.721 397.254 244.314 397.254 245.29L397.254 245.29ZM388.677 243.721V245.289H390.455C390.804 245.289 390.978 245.115 390.978 244.767V244.244C390.978 243.895 390.804 243.721 390.455 243.721H388.677V243.721ZM412.943 254.807H414.407V255.121C414.407 258.12 414.163 259.619 413.675 259.619C413.187 259.619 412.943 258.538 412.943 256.376V254.807L412.943 254.807ZM412.943 259.828H414.407V261.397H412.943V259.828ZM415.349 125.109H503.21V150.108H474.133V253.763H487.312V256.796H474.133V268.198H466.288V272.172H471.832V274.997H445.16C444.811 274.997 444.637 274.822 444.637 274.474V150.111H415.35V125.113L415.349 125.109ZM463.777 253.762V256.795H473.923V253.762H463.777ZM496.412 125.109H524.758L533.125 200.419H540.97C541.11 199.792 543.411 174.689 547.874 125.109H583.75C588.352 176.291 590.758 202.372 590.967 203.348H602.787C608.016 158.441 610.945 132.361 611.573 125.109H639.919L628.099 204.603H625.903V219.352H604.46V223.117H621.404V245.5H605.191V265.164H600.798V273.741H582.599V225.313H570.779V207.844C570.779 206.31 569.211 192.19 566.073 165.482H565.55V165.692L561.68 200.418H563.562V254.076H546.094V274.996H523.711V254.076H515.134V204.603H508.231L496.412 125.109ZM509.172 206.798H510.637L511.683 210.04H511.892C512.38 207.878 512.799 206.798 513.147 206.798H514.089V207.111C513.112 210.528 512.485 212.237 512.206 212.237H510.951C510.951 211.748 510.358 209.936 509.172 206.798L509.172 206.798ZM508.964 214.224L510.428 214.224V217.885C510.428 218.025 510.777 218.269 511.474 218.617C512.102 218.408 512.415 218.164 512.415 217.885V214.224H513.88V216.944C513.88 218.339 513.392 219.245 512.415 219.663H510.951C509.626 219.663 508.964 218.757 508.964 216.944V214.224L508.964 214.224ZM508.964 221.546H512.625C512.903 221.546 513.252 221.895 513.671 222.592V223.534L513.148 224.266C513.426 224.824 513.671 225.73 513.88 226.985H512.415C512.415 226.567 512.346 225.904 512.206 224.998H510.428V226.985H509.487C509.138 226.985 508.964 226.811 508.964 226.462V221.546L508.964 221.546ZM510.428 222.592V223.847H511.892C512.241 223.847 512.415 223.672 512.415 223.324C512.276 222.975 512.206 222.731 512.206 222.592H510.428L510.428 222.592ZM509.905 228.972L513.88 228.972V230.227H511.474V230.959H513.148C513.496 231.029 513.671 231.203 513.671 231.482V232.214H511.474V234.411H510.428C510.079 234.411 509.905 234.237 509.905 233.888V228.972L509.905 228.972ZM511.474 236.085C512.939 236.434 513.671 237.096 513.671 238.072L513.148 238.281H512.625L511.683 237.34H510.951C510.254 237.619 509.905 238.177 509.905 239.014C509.905 240.199 510.428 240.792 511.474 240.792C512.102 240.513 512.415 240.269 512.415 240.06V239.85C511.579 239.85 511.16 239.676 511.16 239.328V239.014C511.23 238.735 511.404 238.595 511.683 238.595H513.671V241.733H513.357C513.217 241.733 512.973 241.663 512.625 241.524L511.16 241.733H510.951C509.487 241.524 508.755 240.792 508.755 239.537V238.595C508.755 237.201 509.661 236.364 511.474 236.085H511.474ZM508.964 243.721H510.428V245.708H512.415V243.721H513.88V248.637C513.88 248.985 513.705 249.16 513.357 249.16H512.415V246.963H510.428V249.16H509.487C509.138 249.16 508.964 248.985 508.964 248.637V243.721H508.964ZM605.921 246.649H607.386C607.734 248.113 607.909 249.124 607.909 249.682H608.118C608.606 248.078 608.85 247.067 608.85 246.649H609.896C610.314 246.649 610.628 247.73 610.837 249.891H611.151C611.43 247.73 611.744 246.649 612.092 246.649H613.034C612.267 250.275 611.709 252.088 611.36 252.088H610.314L609.582 249.159H609.373C609.024 250.972 608.85 251.948 608.85 252.088H607.386C607.107 250.693 606.619 248.88 605.921 246.649ZM606.135 254.076H607.391C607.739 254.076 608.088 254.564 608.437 255.54C608.716 255.54 609.029 255.052 609.378 254.076H610.842V254.285L609.378 256.586C609.378 256.656 609.971 257.527 611.156 259.201V259.515H609.901C609.483 259.515 609.064 258.922 608.646 257.736C607.809 258.922 607.321 259.515 607.181 259.515H605.926C605.926 259.375 606.519 258.469 607.704 256.795V256.586L606.136 254.285V254.076L606.135 254.076ZM697.238 125.109C718.715 125.109 732.835 132.64 739.6 147.702C743.435 155.024 745.352 169.145 745.352 190.064V190.796H734.265V195.817H745.352V249.893H738.031V269.453H723.492V274.997H672.658V269.453H666.382V249.893H653.307V234.622H661.152V226.673H653.307V234.622H634.794V226.673H648.81C648.671 214.4 648.601 205.021 648.601 198.536V185.775C648.601 162.066 652.61 146.203 660.629 138.183C668.021 129.466 680.223 125.108 697.238 125.108L697.238 125.109ZM678.933 176.779L679.142 176.779L678.933 177.197V190.794H667.637V195.815H678.933C678.724 217.362 678.619 233.644 678.619 244.661V249.891H703.723V241.628H715.229V241.419C715.229 231.238 715.159 217.048 715.019 198.848C715.019 198.081 715.089 196.128 715.229 192.991C715.229 173.256 714.078 161.158 711.777 156.695C709.406 152.372 705.048 150.21 698.702 150.21H694.937C687.406 150.21 682.733 153.522 680.921 160.147C680.084 163.494 679.422 169.037 678.933 176.777L678.933 176.779ZM745.352 190.795H763.343V195.815H745.352V190.795ZM746.608 196.756H747.131C747.549 196.756 747.863 197.767 748.072 199.79C748.351 199.79 748.769 198.778 749.327 196.756H750.059C750.478 196.756 750.826 197.837 751.105 199.999H751.315L752.047 196.756H753.302V197.07C752.535 200.696 751.977 202.509 751.628 202.509H750.582C750.582 202.23 750.338 201.149 749.85 199.267H749.641C749.362 201.428 749.013 202.509 748.595 202.509H747.549C747.061 200.347 746.573 198.534 746.085 197.07L746.608 196.756ZM747.127 204.287H748.068C748.487 204.287 749.01 205.472 749.637 207.843H749.846C749.846 207.495 750.16 206.309 750.788 204.287H752.566V210.04H751.311V207.111H751.102C750.613 209.064 750.195 210.04 749.846 210.04H749.114C748.626 208.506 748.382 207.599 748.382 207.32H748.068C748.068 209.133 747.894 210.04 747.545 210.04H746.604V204.81C746.674 204.461 746.848 204.287 747.127 204.287L747.127 204.287ZM746.294 211.819L747.34 211.819C748.176 212.307 748.595 212.9 748.595 213.597C748.665 213.597 749.153 213.004 750.059 211.819H751.105V212.342L749.641 214.538C749.641 214.678 750.199 215.619 751.314 217.363V217.572H750.059L748.595 215.794C748.037 216.979 747.619 217.572 747.34 217.572H746.085C747.27 215.828 747.863 214.817 747.863 214.538C746.817 213.004 746.294 212.098 746.294 211.819L746.294 211.819ZM747.127 219.349H748.591C750.265 219.349 751.102 219.942 751.102 221.128V221.337L750.579 222.069C750.858 222.069 751.102 222.348 751.311 222.906V223.847C750.962 224.684 750.126 225.102 748.801 225.102H746.604V219.873C746.674 219.524 746.848 219.35 747.127 219.35V219.349ZM748.07 220.605V221.651H749.639V220.605H748.07ZM709.266 220.605H710.73V222.592H712.508V221.128C712.578 220.779 712.752 220.605 713.031 220.605H713.973V226.148H712.508V223.847H710.73V226.148H709.266V220.605V220.605ZM748.07 222.592V223.847H749.848V223.115C749.848 222.766 749.673 222.592 749.325 222.592H748.07V222.592ZM747.127 226.88L750.369 226.88C750.648 226.95 750.788 227.124 750.788 227.403V228.135H748.068V229.077H750.579V230.332H748.068V231.378H750.788V232.633H746.604V227.403C746.674 227.055 746.848 226.88 747.127 226.88L747.127 226.88ZM709.266 228.135H713.45V228.658C713.45 229.286 712.613 230.541 710.939 232.424C712.822 232.424 713.763 232.563 713.763 232.842V233.679H708.952V232.633C710.207 231.169 711.044 230.088 711.462 229.391H709.266V228.135ZM682.908 235.352C684.372 235.352 685.209 236.468 685.418 238.699C685.418 240.303 684.407 241.21 682.385 241.419C680.711 241.001 679.875 240.094 679.875 238.699C679.875 236.468 680.886 235.352 682.908 235.352ZM710.731 235.666H712.195C712.195 236.085 712.893 237.898 714.287 241.105H713.032C712.684 241.105 712.509 240.791 712.509 240.164H710.731C710.382 240.164 710.208 240.478 710.208 241.105H708.744V240.896C709.092 240.268 709.755 238.525 710.731 235.666L710.731 235.666ZM681.444 237.654V238.7C681.444 239.676 681.932 240.164 682.908 240.164C683.605 240.025 683.954 239.537 683.954 238.7V237.654C683.954 237.375 683.605 237.026 682.908 236.608H682.385C682.176 236.608 681.862 236.957 681.444 237.654ZM711.254 237.654L710.94 238.909H711.986C711.777 238.072 711.533 237.654 711.254 237.654ZM682.385 242.884C683.501 242.884 684.338 243.407 684.896 244.453V245.185H683.64C683.64 244.488 683.152 244.139 682.176 244.139L681.444 245.185V246.127C681.444 247.172 681.932 247.695 682.908 247.695C683.048 247.695 683.466 247.277 684.163 246.44H685.209C685.209 247.835 684.268 248.672 682.385 248.951C680.712 248.462 679.875 247.521 679.875 246.127C680.084 243.965 680.921 242.884 682.385 242.884H682.385ZM760.1 125.42L811.353 125.42C828.507 125.42 839.594 131.451 844.615 143.515C846.777 149.721 847.858 156.834 847.858 164.853V171.129C847.858 185.634 844.685 196.685 838.339 204.286H827.462V209.83H844.092V245.602H834.26V251.145H849.113V272.274H817.942V238.489H805.914V216.629H784.995V253.656H789.493V274.994H760.624C760.275 274.994 760.101 274.819 760.101 274.471V214.432H772.967V210.143H760.101V125.419L760.1 125.42ZM789.492 149.797V192.054H796.604C807.273 192.054 813.445 191.043 815.118 189.021C816.861 187.905 818.221 185.639 819.197 182.222H830.285V176.888H820.244V177.411C819.686 180.618 819.267 182.222 818.988 182.222H804.659V176.888H819.721C820.07 176.888 820.244 176.748 820.244 176.469C820.383 172.146 820.453 169.705 820.453 169.148C820.453 159.804 818.849 154.085 815.642 151.993C813.131 150.529 808.529 149.797 801.835 149.797H789.493L789.492 149.797ZM786.25 217.885H787.505C788.202 218.234 788.551 218.757 788.551 219.454C788.83 219.454 789.144 218.931 789.492 217.885H791.061V218.199L789.492 220.396C789.492 220.535 790.085 221.476 791.271 223.22V223.429H790.015C789.876 223.429 789.388 222.836 788.551 221.651C788.063 222.766 787.644 223.359 787.296 223.429H786.041C787.156 221.686 787.714 220.675 787.714 220.396L786.25 217.885ZM786.459 225.416H791.061V226.253L788.237 229.704H791.061V230.96H786.249V230.018L788.969 226.462H786.459V225.416V225.416ZM857.166 125.002L886.662 125.002V153.243C886.662 162.657 886.488 172.803 886.139 183.681V183.994H886.453C888.894 179.392 895.518 167.538 906.327 148.432C911.905 138.739 914.695 131.417 914.695 126.466V125.002H944.923V125.734C944.923 135.357 940.983 145.851 933.104 157.218L915.113 183.262L932.79 220.813H948.689V225.31H930.803V225.624C933.662 231.761 935.51 235.456 936.347 236.712H939.59V250.309H944.192V274.785C939.032 274.925 935.231 274.995 932.79 274.995H925.469C922.888 274.995 919.367 274.925 914.904 274.785V258.364H908.315V236.712H904.549L900.575 225.31H930.49V220.813H903.085C903.085 220.464 901.481 215.409 898.274 205.646H897.96C896.286 208.854 892.939 213.91 887.919 220.813H900.574V225.31H886.663V232.632H884.885V266.94H886.663V274.471C886.663 274.819 886.489 274.994 886.14 274.994H857.69C857.341 274.994 857.167 274.819 857.167 274.471V262.651H870.555V257.631H857.167V125L857.166 125.002ZM933.522 213.178H935.091C935.509 213.178 935.997 214.538 936.555 217.257C936.834 217.257 937.357 215.897 938.124 213.178H940.321V219.558C940.321 219.907 940.181 220.081 939.902 220.081H938.856V216.002H938.647C938.647 216.281 938.229 217.641 937.392 220.081H936.555C936.067 220.081 935.579 218.896 935.091 216.525H934.777V219.558C934.777 219.907 934.637 220.081 934.359 220.081H933.522C933.243 220.081 933.103 219.907 933.103 219.558V213.701C933.103 213.352 933.243 213.178 933.522 213.178L933.522 213.178ZM869.299 220.814V225.311H886.454C886.454 224.753 886.872 223.254 887.709 220.814H869.299H869.299ZM908.628 259.41H910.093C910.302 259.41 910.825 259.967 911.661 261.083C912.289 259.967 912.707 259.41 912.917 259.41H914.381V259.619L912.394 262.652C912.742 262.722 913.509 263.803 914.695 265.895H912.603L911.661 263.907C910.615 265.232 910.023 265.895 909.883 265.895H908.314C909.5 263.803 910.267 262.722 910.615 262.652L908.628 259.619V259.41H908.628Z" fill="white"/>
</svg>
